<?xml version="1.0" encoding="UTF-8"?><svg id="Capa_1" xmlns="http://www.w3.org/2000/svg" viewBox="0 0 379.26 129.71"><defs><style>.cls-1{fill:#fff;}</style></defs><path class="cls-1" d="M113.18,50.06c7.82,0,13.41,4.34,13.57,11.22h-8.59c-.2-2.47-2.23-4.09-5.31-4.09-3.36,0-5.67,2.03-5.67,5.59v4.98c0,3.28,2.03,5.47,5.67,5.47,2.8,0,5.02-1.5,5.31-4.17h8.59c-.36,6.93-6.04,11.3-13.9,11.3-9.12,0-14.34-6-14.34-15.07s5.63-15.23,14.67-15.23Z"/><path class="cls-1" d="M148.95,75.91h-10.17l-1.3,4.05h-8.47l9.6-29.54h10.41l10.17,29.54h-9.04l-1.22-4.05ZM147.05,69.67l-2.55-10.53h-1.13l-2.59,10.53h6.28Z"/><path class="cls-1" d="M162.8,50.42h8.22v22.28h11.34v7.25h-19.57v-29.54Z"/><path class="cls-1" d="M188.45,50.42h22.04v6.97h-13.82v3.97h11.67v6.52h-11.67v5.11h13.82v6.97h-22.04v-29.54Z"/><path class="cls-1" d="M229.73,50.06c7.82,0,13.41,4.34,13.57,11.22h-8.59c-.2-2.47-2.23-4.09-5.31-4.09-3.36,0-5.67,2.03-5.67,5.59v4.98c0,3.28,2.03,5.47,5.67,5.47,2.8,0,5.02-1.5,5.31-4.17h8.59c-.36,6.93-6.04,11.3-13.9,11.3-9.12,0-14.34-6-14.34-15.07s5.63-15.23,14.67-15.23Z"/><path class="cls-1" d="M270.98,57.47h-8.39v22.49h-8.22v-22.49h-8.14v-7.05h24.76v7.05Z"/><path class="cls-1" d="M275.84,50.42h15.19c6.44,0,10.09,3.57,10.09,9.04,0,4.82-2.39,7.7-6.69,8.63v1.13c3.08.61,3.89,2.11,4.82,4.38l2.59,6.36h-8.99l-2.84-7.41c-.73-1.9-1.5-2.47-4.01-2.47h-1.94v9.89h-8.22v-29.54ZM289.53,64.28c2.07,0,2.88-1.13,2.88-2.43v-1.7c0-1.66-1.22-2.43-3-2.43h-5.35v6.56h5.47Z"/><path class="cls-1" d="M324.25,75.91h-10.17l-1.3,4.05h-8.47l9.6-29.54h10.41l10.17,29.54h-9.04l-1.22-4.05ZM322.35,69.67l-2.55-10.53h-1.13l-2.59,10.53h6.28Z"/><path class="cls-1" d="M89.08,54.7l-10.69-10.69c-.46-.46-1.09-.72-1.75-.72h-18.87c-.66,0-1.28.26-1.75.72l-10.59,10.59c-.46.46-.72,1.09-.72,1.75v17.74c0,.66.26,1.28.72,1.75l9.91,9.91c.46.46,1.09.72,1.75.72h20.23c.66,0,1.28-.26,1.75-.72l10.01-10.01c.34-.34.34-.9,0-1.25l-9.27-9.27,9.27-9.27c.34-.34.34-.9,0-1.25ZM54.5,63.46l10.04-10.04c.96-.96,2.53-.96,3.49,0l11.79,11.79-11.79,11.79c-.96.96-2.53.96-3.49,0l-10.04-10.04c-.96-.96-.96-2.53,0-3.49Z"/></svg>