<svg width="238" height="25" viewBox="0 0 238 25" fill="none" xmlns="http://www.w3.org/2000/svg">
<path fill-rule="evenodd" clip-rule="evenodd" d="M127.044 24.4012H123.063V20.7089C122.068 23.0848 119.756 24.7866 117.123 24.7866C112.885 24.7866 109.867 20.9979 109.867 15.7324C109.867 10.4668 112.917 6.71035 117.123 6.71034C120.27 6.71034 122.293 8.86153 123.063 11.1732V0H127.044V24.4012ZM118.568 9.5358C115.582 9.53583 113.945 11.9438 113.945 15.7324C113.945 19.5531 115.582 21.9611 118.568 21.9611C121.554 21.9611 123.192 19.5531 123.192 15.7324C123.192 11.9438 121.554 9.5358 118.568 9.5358Z" fill="#21211D"/>
<path d="M80.118 17.2093C80.118 20.4521 81.4343 21.8969 83.7139 21.8969C85.9935 21.8969 87.2778 20.3879 87.2778 17.1451V7.09552H91.2912V24.4012H87.3099V20.9658C86.5393 23.0206 84.9018 24.7864 81.9159 24.7864C77.9668 24.7864 76.1046 21.8006 76.1046 17.9478V7.09552H80.118V17.2093Z" fill="#21211D"/>
<path fill-rule="evenodd" clip-rule="evenodd" d="M137.205 6.71003C142.31 6.71005 145.649 10.2417 145.649 15.6356C145.649 16.0209 145.617 16.4704 145.553 16.9199H132.774C133.095 20.259 134.797 21.9608 137.237 21.9608C139.453 21.9608 140.576 20.9654 141.186 19.2958H145.264C144.172 22.9881 141.251 24.7861 137.205 24.7861C131.908 24.7861 128.697 20.9976 128.697 15.7321C128.697 10.4344 132.004 6.71003 137.205 6.71003ZM137.205 9.53533C134.861 9.53533 133.224 11.0123 132.807 14.1267H141.54C141.347 11.3655 139.677 9.53535 137.205 9.53533Z" fill="#21211D"/>
<path d="M164.977 6.71003C168.637 6.71003 171.719 8.31537 172.458 11.5261H168.412C167.963 10.2418 166.55 9.53533 165.009 9.53533C163.275 9.53534 161.702 10.2739 161.702 11.5903C161.702 12.7782 162.761 13.1956 164.848 13.6451L167.577 14.2231C171.205 14.9936 172.779 16.5989 172.779 19.36C172.779 22.7955 169.536 24.7861 165.105 24.7861C161.06 24.7861 157.945 22.924 157.432 19.2638H161.477C161.894 21.3507 163.564 21.9608 165.201 21.9608C167.641 21.9608 168.926 21.0939 168.926 19.7454C168.926 18.429 168.123 17.7869 165.619 17.2732L162.89 16.6632C159.743 15.9889 157.817 14.544 157.817 11.9112C157.817 8.73269 161.028 6.71003 164.977 6.71003Z" fill="#21211D"/>
<path fill-rule="evenodd" clip-rule="evenodd" d="M193.442 6.71003C198.804 6.71004 202.175 10.4023 202.175 15.7321C202.175 21.0939 198.804 24.7861 193.442 24.7861C188.112 24.7861 184.741 21.0939 184.741 15.7321C184.741 10.4023 188.112 6.71003 193.442 6.71003ZM193.442 9.53533C190.488 9.53533 188.818 11.9434 188.818 15.7321C188.818 19.5528 190.488 21.9608 193.442 21.9608C196.428 21.9608 198.065 19.5527 198.065 15.7321C198.065 11.9434 196.428 9.53534 193.442 9.53533Z" fill="#21211D"/>
<path fill-rule="evenodd" clip-rule="evenodd" d="M229.122 6.71003C234.227 6.71004 237.566 10.2417 237.566 15.6356C237.566 16.0209 237.534 16.4704 237.47 16.9199H224.691C225.012 20.259 226.714 21.9608 229.154 21.9608C231.369 21.9608 232.493 20.9654 233.103 19.2958H237.181C236.089 22.9881 233.168 24.7861 229.122 24.7861C223.824 24.7861 220.614 20.9976 220.614 15.7321C220.614 10.4344 223.921 6.71003 229.122 6.71003ZM229.122 9.53533C226.778 9.53533 225.141 11.0123 224.723 14.1267H233.457C233.264 11.3655 231.594 9.53534 229.122 9.53533Z" fill="#21211D"/>
<path d="M180.261 7.09568H184.371V10.0496H176.248L180.261 13.9768V19.2643C180.261 20.9338 181.128 21.4155 182.605 21.4155H184.435V24.4014H181.931C178.72 24.4014 176.248 22.8281 176.248 19.4569V10.0496H172.844V7.09568H176.248V2.98609H180.261V7.09568Z" fill="#21211D"/>
<path d="M58.0072 3.56393H45.9993L50.1411 7.5943V24.4012H45.9993V3.56393H38.1331V0H58.0072V3.56393Z" fill="#21211D"/>
<path d="M63.062 10.6274C63.8647 8.50838 65.5664 6.71037 68.5523 6.71034C72.5335 6.71034 74.4279 9.66414 74.4279 13.5169V24.4012H70.4146V14.2876C70.4146 11.0127 69.034 9.56784 66.7544 9.56783C64.5069 9.56783 63.0942 11.0448 63.0942 14.3518V24.4012H59.0809V0H63.062V10.6274Z" fill="#21211D"/>
<path d="M102.475 6.71003C106.457 6.71003 108.351 9.66381 108.351 13.5166V24.4009H104.338V14.2873C104.338 11.0124 102.957 9.56754 100.677 9.56752C98.4299 9.56752 97.0172 11.0444 97.0172 14.3514V24.4009H93.0039V7.0952H96.985V10.6271C97.7877 8.50806 99.4894 6.71004 102.475 6.71003Z" fill="#21211D"/>
<path d="M156.997 10.6591H155.905C152.79 10.6591 151.281 11.6866 151.281 14.7047V24.4009H147.268V7.0952H151.249V11.3012C151.924 8.70058 153.657 6.71003 156.997 6.71003V10.6591Z" fill="#21211D"/>
<path d="M213.254 6.71003C217.235 6.71003 219.13 9.66381 219.13 13.5166V24.4009H215.116V14.2873C215.116 11.0124 213.736 9.56755 211.456 9.56752C209.209 9.56752 207.796 11.0444 207.796 14.3514V24.4009H203.782V7.0952H207.764V10.6271C208.566 8.50805 210.268 6.71003 213.254 6.71003Z" fill="#21211D"/>
<path d="M12.1994 18.299V24.3987H6.09968V12.1994L12.1994 18.299Z" fill="#21211D"/>
<path d="M19.0615 18.299V24.3987H12.9618V12.1994L19.0615 18.299Z" fill="#21211D"/>
<path d="M25.1612 18.299H19.0615V12.1994H25.1612V18.299Z" fill="#21211D"/>
<path d="M6.09968 12.1994H0V6.09968H6.09968V12.1994Z" fill="#21211D"/>
<path d="M12.1994 12.1994L6.09968 6.09968V0H12.1994V12.1994Z" fill="#21211D"/>
<path d="M19.0615 12.1994L12.9618 6.09968V0H19.0615V12.1994Z" fill="#21211D"/>
</svg>
